<svg width="67" height="81" viewBox="0 0 67 81" fill="none" xmlns="http://www.w3.org/2000/svg">
<path d="M1.38288 42.6029C0.78478 43.4801 0.840176 44.8212 1.60501 45.9164C2.54628 47.2642 4.20481 47.7313 5.30887 46.9601C6.41299 46.1891 6.54599 44.4722 5.60481 43.1243C4.66363 41.7765 3.00492 41.3095 1.90085 42.0807C1.69776 42.2215 1.52223 42.3987 1.38288 42.6029ZM6.28682 37.7963C5.74279 38.618 5.60896 39.7985 6.02258 40.9388C6.65261 42.6769 8.31689 43.6667 9.74049 43.1508C11.1642 42.6346 11.806 40.8077 11.1757 39.0697C10.5458 37.3317 8.88149 36.3419 7.45794 36.858C6.96856 37.0353 6.57163 37.3658 6.28682 37.7963ZM12.4354 34.6232C11.9129 35.3908 11.6853 36.4479 11.8895 37.5455C12.2527 39.4968 13.8415 40.8361 15.4398 40.5387C17.0382 40.2413 18.0401 38.4186 17.6773 36.4673C17.3141 34.516 15.7253 33.1767 14.1269 33.4741C13.4273 33.604 12.842 34.0259 12.4354 34.6232ZM7.07132 47.9297C5.93283 49.6015 5.38459 51.595 5.71647 53.8762C6.77609 61.1576 9.70308 69.5068 18.1473 77.2503C28.0107 86.2952 35.0167 71.4041 28.241 68.847C19.5854 65.5804 19.3678 59.2865 24.3043 54.5963C26.4989 52.5114 27.2401 49.3701 25.5451 46.1488C23.5067 42.2753 17.1771 41.403 11.968 43.9267C9.93751 44.91 8.20962 46.2579 7.07132 47.9297ZM20.1087 33.1544C19.5882 33.9434 19.2452 34.916 19.1618 35.9859C18.9392 38.8388 20.6516 41.3012 22.9887 41.4836C25.3258 41.6657 27.4006 39.4994 27.6232 36.6465C27.8457 33.7934 26.1316 31.3335 23.7946 31.1511C22.3338 31.0372 20.9764 31.8396 20.1087 33.1544Z" fill="white"/>
<path d="M65.5433 7.37435C66.3039 8.11532 66.5162 9.44055 65.9844 10.666C65.3299 12.174 63.7971 12.9614 62.562 12.425C61.3264 11.8889 60.8548 10.2327 61.5095 8.7246C62.164 7.21663 63.6966 6.42915 64.9319 6.96552C65.1589 7.06324 65.3664 7.20185 65.5433 7.37435ZM59.7818 3.63844C60.4785 4.33569 60.8441 5.46592 60.6654 6.6658C60.3935 8.49443 58.9593 9.79531 57.4616 9.57265C55.9635 9.34976 54.9714 7.6868 55.2436 5.85828C55.5157 4.02967 56.9498 2.72875 58.4478 2.95164C58.9626 3.02811 59.4171 3.27323 59.7818 3.63844ZM53.1252 1.75076C53.7899 2.39928 54.223 3.39007 54.2411 4.5064C54.273 6.49091 52.9822 8.11929 51.3566 8.14551C49.7312 8.17179 48.3868 6.58455 48.3547 4.60016C48.3228 2.6155 49.6135 0.987112 51.2391 0.96083C51.9505 0.949222 52.6082 1.24637 53.1252 1.75076ZM61.0274 13.7256C62.4753 15.1378 63.4088 16.9825 63.537 19.2841C63.9461 26.6309 62.7368 35.3953 56.0005 44.6627C48.1316 55.4877 38.3055 42.2863 44.4379 38.4334C52.2712 33.5115 51.2335 27.3 45.4634 23.6846C42.898 22.0775 41.5472 19.1463 42.5683 15.6523C43.7961 11.4509 49.8257 9.33789 55.4325 10.7758C57.618 11.3359 59.5793 12.3135 61.0274 13.7256ZM45.313 1.83664C45.98 2.50631 46.5095 3.39136 46.8042 4.42331C47.5893 7.17516 46.4003 9.92877 44.1462 10.572C41.892 11.2151 39.4278 9.50439 38.6427 6.7526C37.8575 4.00082 39.0484 1.24918 41.3025 0.605926C42.7115 0.20396 44.2013 0.720623 45.313 1.83664Z" fill="white"/>
</svg>
