<svg width="100" height="100" viewBox="0 0 100 100" fill="none" xmlns="http://www.w3.org/2000/svg">
<g clip-path="url(#clip0_200_445)">
<path d="M0 18C0 8.05888 8.05888 0 18 0H82C91.9412 0 100 8.05888 100 18V82C100 91.9412 91.9412 100 82 100H18C8.05888 100 0 91.9412 0 82V18Z" fill="white"/>
<path d="M80.1305 18.0944C80.9419 18.7793 81.2481 20.086 80.8049 21.3462C80.2595 22.897 78.7867 23.7916 77.5165 23.3446C76.2459 22.8978 75.6575 21.2794 76.2031 19.7285C76.7485 18.1778 78.2211 17.2831 79.4915 17.7301C79.7249 17.8114 79.9417 17.9349 80.1305 18.0944ZM74.1175 14.7784C74.8621 15.4242 75.3073 16.5255 75.2145 17.7351C75.0735 19.5785 73.7357 20.9782 72.2259 20.8628C70.7157 20.7472 69.6077 19.1591 69.7489 17.3159C69.8901 15.4725 71.2279 14.0727 72.7379 14.1884C73.2569 14.228 73.7277 14.4401 74.1175 14.7784ZM67.3433 13.3697C68.0525 13.9692 68.5551 14.9266 68.6527 16.0388C68.8259 18.016 67.6543 19.7322 66.0347 19.8742C64.4153 20.0162 62.9613 18.5288 62.7879 16.5517C62.6147 14.5744 63.7861 12.8582 65.4057 12.7161C66.1145 12.6539 66.7917 12.9034 67.3433 13.3697ZM76.0785 24.7512C77.6233 26.0566 78.6859 27.8302 78.9777 30.1168C79.9091 37.4158 79.3273 46.244 73.2683 55.9678C66.1905 67.3258 55.4489 54.858 61.2913 50.578C68.7541 45.1106 67.2765 38.9888 61.2635 35.7936C58.5901 34.3734 57.0339 31.5458 57.8035 27.988C58.7289 23.7098 64.5927 21.1726 70.2877 22.2074C72.5075 22.6104 74.5335 23.4458 76.0785 24.7512ZM59.5571 14.0119C60.2701 14.6323 60.8613 15.4774 61.2287 16.4858C62.2079 19.1747 61.2181 22.006 59.0155 22.8082C56.8129 23.6102 54.2331 22.0794 53.2539 19.3905C52.2747 16.7017 53.2665 13.8722 55.4691 13.07C56.8459 12.5687 58.3687 12.9779 59.5571 14.0119Z" fill="#0084FE"/>
<path d="M20.158 46.4944C19.3466 47.1792 19.0405 48.486 19.4837 49.7462C20.0292 51.297 21.5018 52.1916 22.7722 51.7446C24.0426 51.2978 24.631 49.6794 24.0856 48.1286C23.5402 46.5778 22.0674 45.6832 20.797 46.1302C20.5636 46.2114 20.347 46.335 20.158 46.4944ZM26.171 43.1784C25.4266 43.8242 24.9812 44.9256 25.074 46.135C25.215 47.9784 26.553 49.3782 28.0628 49.2628C29.5728 49.1472 30.6808 47.5592 30.5396 45.7158C30.3986 43.8726 29.0606 42.4728 27.5508 42.5884C27.0318 42.628 26.5608 42.84 26.171 43.1784ZM32.9452 41.7698C32.236 42.3692 31.7334 43.3266 31.6358 44.4388C31.4626 46.416 32.6342 48.1322 34.2538 48.2742C35.8734 48.4162 37.3272 46.9288 37.5008 44.9516C37.674 42.9744 36.5024 41.2582 34.8828 41.1162C34.174 41.0538 33.497 41.3034 32.9452 41.7698ZM24.2102 53.1512C22.6652 54.4566 21.6026 56.2302 21.3108 58.5168C20.3796 65.8158 20.9612 74.644 27.0204 84.3678C34.098 95.7258 44.8396 83.258 38.9974 78.978C31.5344 73.5106 33.012 67.3888 39.0252 64.1936C41.6984 62.7734 43.2546 59.9458 42.4852 56.388C41.5598 52.1098 35.6958 49.5726 30.0008 50.6074C27.781 51.0104 25.755 51.8458 24.2102 53.1512ZM40.7314 42.4118C40.0184 43.0324 39.4272 43.8774 39.06 44.8858C38.0808 47.5746 39.0704 50.406 41.273 51.2082C43.4758 52.0102 46.0554 50.4794 47.0346 47.7906C48.0138 45.1016 47.022 42.2722 44.8194 41.47C43.4426 40.9686 41.9198 41.3778 40.7314 42.4118Z" fill="#0084FE"/>
</g>
<defs>
<clipPath id="clip0_200_445">
<rect width="100" height="100" fill="white"/>
</clipPath>
</defs>
</svg>
