<svg width="48" height="48" viewBox="0 0 48 48" fill="none" xmlns="http://www.w3.org/2000/svg">
<rect width="48" height="48" rx="24" fill="#BBBBBB"/>
<path d="M31.6735 26.6667C32.4687 26.6674 33.2311 26.9838 33.7931 27.5463C34.3552 28.1088 34.6709 28.8715 34.6709 29.6667V30.8907C34.6708 31.6547 34.4322 32.3996 33.9882 33.0213C31.9269 35.9067 28.5615 37.3347 24.0015 37.3347C19.4389 37.3347 16.0749 35.9053 14.0189 33.02C13.5764 32.3987 13.3387 31.6548 13.3389 30.892V29.6653C13.3392 28.8701 13.6553 28.1076 14.2175 27.5453C14.7798 26.9831 15.5423 26.667 16.3375 26.6667H31.6735ZM24.0002 10.6733C24.8757 10.6733 25.7426 10.8458 26.5514 11.1808C27.3603 11.5158 28.0952 12.0069 28.7142 12.626C29.3333 13.245 29.8244 13.9799 30.1594 14.7888C30.4944 15.5976 30.6669 16.4645 30.6669 17.34C30.6669 18.2155 30.4944 19.0824 30.1594 19.8912C29.8244 20.7001 29.3333 21.435 28.7142 22.054C28.0952 22.6731 27.3603 23.1642 26.5514 23.4992C25.7426 23.8342 24.8757 24.0067 24.0002 24.0067C22.2321 24.0067 20.5364 23.3043 19.2862 22.054C18.0359 20.8038 17.3335 19.1081 17.3335 17.34C17.3335 15.5719 18.0359 13.8762 19.2862 12.626C20.5364 11.3757 22.2321 10.6733 24.0002 10.6733Z" fill="white"/>
</svg>
