<svg width="16" height="16" viewBox="0 0 16 16" fill="none" xmlns="http://www.w3.org/2000/svg">
<path d="M3.82484 8.99999L8.72484 13.9C8.92484 14.1 9.02084 14.3333 9.01284 14.6C9.00484 14.8667 8.90051 15.1 8.69984 15.3C8.49984 15.4833 8.26651 15.5793 7.99984 15.588C7.73318 15.5967 7.49984 15.5007 7.29984 15.3L0.699842 8.69999C0.599842 8.59999 0.528843 8.49165 0.486843 8.37499C0.444843 8.25832 0.424509 8.13332 0.425843 7.99999C0.427176 7.86665 0.448176 7.74165 0.488843 7.62499C0.529509 7.50832 0.600176 7.39999 0.700843 7.29999L7.30084 0.699987C7.48418 0.516654 7.71351 0.424988 7.98884 0.424988C8.26418 0.424988 8.50151 0.516654 8.70084 0.699987C8.90084 0.899987 9.00084 1.13765 9.00084 1.41299C9.00084 1.68832 8.90084 1.92565 8.70084 2.12499L3.82484 6.99999H14.9998C15.2832 6.99999 15.5208 7.09599 15.7128 7.28799C15.9048 7.47999 16.0005 7.71732 15.9998 7.99999C15.9992 8.28265 15.9032 8.52032 15.7118 8.71299C15.5205 8.90565 15.2832 9.00132 14.9998 8.99999H3.82484Z" fill="black"/>
</svg>
