<svg width="24" height="24" viewBox="0 0 24 24" fill="none" xmlns="http://www.w3.org/2000/svg">
<path fill-rule="evenodd" clip-rule="evenodd" d="M5.46983 5.47001C5.61045 5.32956 5.80108 5.25067 5.99983 5.25067C6.19858 5.25067 6.3892 5.32956 6.52983 5.47001L18.5298 17.47C18.6035 17.5387 18.6626 17.6215 18.7036 17.7135C18.7446 17.8055 18.7666 17.9048 18.7684 18.0055C18.7702 18.1062 18.7517 18.2062 18.714 18.2996C18.6762 18.393 18.6201 18.4778 18.5489 18.549C18.4776 18.6203 18.3928 18.6764 18.2994 18.7141C18.206 18.7519 18.106 18.7704 18.0053 18.7686C17.9046 18.7668 17.8053 18.7448 17.7133 18.7038C17.6213 18.6628 17.5385 18.6037 17.4698 18.53L5.46983 6.53001C5.32938 6.38939 5.25049 6.19876 5.25049 6.00001C5.25049 5.80126 5.32938 5.61064 5.46983 5.47001Z" fill="#D72323"/>
<path fill-rule="evenodd" clip-rule="evenodd" d="M18.5298 5.47001C18.6703 5.61064 18.7492 5.80126 18.7492 6.00001C18.7492 6.19876 18.6703 6.38939 18.5298 6.53001L6.52985 18.53C6.38767 18.6625 6.19963 18.7346 6.00532 18.7312C5.81102 18.7278 5.62564 18.649 5.48822 18.5116C5.35081 18.3742 5.2721 18.1888 5.26867 17.9945C5.26524 17.8002 5.33737 17.6122 5.46985 17.47L17.4698 5.47001C17.6105 5.32956 17.8011 5.25067 17.9998 5.25067C18.1986 5.25067 18.3892 5.32956 18.5298 5.47001Z" fill="#D72323"/>
</svg>
