<svg width="24" height="24" viewBox="0 0 24 24" fill="none" xmlns="http://www.w3.org/2000/svg">
<path d="M9.00015 16.17L5.53015 12.7C5.34317 12.513 5.08957 12.408 4.82515 12.408C4.56072 12.408 4.30712 12.513 4.12015 12.7C3.93317 12.887 3.82813 13.1406 3.82812 13.405C3.82813 13.5359 3.85391 13.6656 3.90402 13.7866C3.95412 13.9075 4.02756 14.0174 4.12015 14.11L8.30015 18.29C8.69015 18.68 9.32015 18.68 9.71015 18.29L20.2901 7.71002C20.4771 7.52304 20.5822 7.26944 20.5822 7.00502C20.5822 6.74059 20.4771 6.48699 20.2901 6.30002C20.1032 6.11304 19.8496 6.008 19.5851 6.008C19.3207 6.008 19.0671 6.11304 18.8801 6.30002L9.00015 16.17Z" fill="#72AE12"/>
</svg>
