<svg width="35" height="35" viewBox="0 0 35 35" fill="none" xmlns="http://www.w3.org/2000/svg">
<g clip-path="url(#clip0_217_1187)">
<path d="M23.3332 6.80554C20.4165 6.80554 20.4165 7.77777 17.4998 7.77777C14.5832 7.77777 14.5832 6.80554 11.6665 6.80554C7.77761 6.80554 2.9165 8.74999 2.9165 15.5555C2.9165 26.25 8.74983 35 12.6387 35C15.5554 35 15.5554 34.0278 17.4998 34.0278C19.4443 34.0278 19.4443 35 22.3609 35C26.2498 35 32.0832 26.25 32.0832 15.5555C32.0832 8.74902 27.222 6.80554 23.3332 6.80554Z" fill="#DD2E44"/>
<path d="M18.4722 6.80558C18.4722 6.80558 21.3888 2.91669 26.25 2.91669C30.1388 2.91669 32.0833 4.86113 32.0833 4.86113C32.0833 4.86113 28.1944 7.7778 25.2777 7.7778C22.3611 7.7778 18.4722 6.80558 18.4722 6.80558Z" fill="#77B255"/>
<path d="M17.5001 9.72219C17.2422 9.72219 16.9949 9.61976 16.8126 9.43744C16.6303 9.25511 16.5278 9.00782 16.5278 8.74997C16.5278 5.40456 17.6945 2.31872 19.7294 0.284836C19.9117 0.102537 20.1589 0.00012207 20.4167 0.00012207C20.6745 0.00012207 20.9218 0.102537 21.1041 0.284836C21.2864 0.467136 21.3888 0.714387 21.3888 0.972197C21.3888 1.23001 21.2864 1.47726 21.1041 1.65956C19.4309 3.33178 18.4723 5.91595 18.4723 8.74997C18.4723 9.00782 18.3698 9.25511 18.1875 9.43744C18.0052 9.61976 17.7579 9.72219 17.5001 9.72219Z" fill="#662113"/>
</g>
<defs>
<clipPath id="clip0_217_1187">
<rect width="35" height="35" fill="white"/>
</clipPath>
</defs>
</svg>
