<svg width="500" height="500" viewBox="0 0 500 500" fill="none" xmlns="http://www.w3.org/2000/svg">
<path d="M0 90C0 40.2944 40.2944 0 90 0H410C459.706 0 500 40.2944 500 90V410C500 459.706 459.706 500 410 500H90C40.2944 500 0 459.706 0 410V90Z" fill="#0084FE"/>
<path d="M400.652 90.4718C404.709 93.8963 406.24 100.43 404.024 106.731C401.297 114.485 393.933 118.958 387.582 116.723C381.229 114.489 378.287 106.397 381.015 98.6427C383.742 90.8889 391.105 86.4156 397.457 88.6506C398.624 89.0571 399.708 89.6745 400.652 90.4718ZM370.587 73.8919C374.31 77.1211 376.536 82.6277 376.072 88.6755C375.367 97.8923 368.678 104.891 361.129 104.314C353.578 103.736 348.038 95.7957 348.744 86.5794C349.45 77.3626 356.139 70.3637 363.689 70.9418C366.284 71.1398 368.638 72.2004 370.587 73.8919ZM336.716 66.8485C340.262 69.8461 342.775 74.6332 343.263 80.1942C344.129 90.0802 338.271 98.6612 330.173 99.371C322.076 100.081 314.806 92.6438 313.939 82.7585C313.073 72.8718 318.93 64.2907 327.028 63.5807C330.572 63.2694 333.958 64.5171 336.716 66.8485ZM380.392 123.756C388.116 130.283 393.429 139.151 394.888 150.584C399.545 187.079 396.636 231.22 366.341 279.839C330.952 336.629 277.244 274.29 306.456 252.89C343.77 225.553 336.382 194.944 306.317 178.968C292.95 171.867 285.169 157.729 289.017 139.94C293.644 118.549 322.963 105.863 351.438 111.037C362.537 113.052 372.667 117.229 380.392 123.756ZM297.785 70.0594C301.35 73.1617 304.306 77.3871 306.143 82.4288C311.039 95.8734 306.09 110.03 295.077 114.041C284.064 118.051 271.165 110.397 266.269 96.9527C261.373 83.5084 266.332 69.361 277.345 65.35C284.229 62.8434 291.843 64.8895 297.785 70.0594Z" fill="#FFFAFA"/>
<path d="M100.789 232.472C96.7321 235.896 95.2014 242.43 97.4175 248.731C100.145 256.485 107.508 260.958 113.86 258.723C120.212 256.489 123.154 248.397 120.427 240.643C117.7 232.889 110.336 228.416 103.984 230.651C102.817 231.057 101.734 231.675 100.789 232.472ZM130.854 215.892C127.132 219.121 124.905 224.628 125.369 230.675C126.074 239.892 132.764 246.891 140.313 246.314C147.863 245.736 153.403 237.796 152.697 228.579C151.992 219.363 145.302 212.364 137.753 212.942C135.158 213.14 132.803 214.2 130.854 215.892ZM164.725 208.849C161.179 211.846 158.666 216.633 158.178 222.194C157.312 232.08 163.17 240.661 171.268 241.371C179.366 242.081 186.635 234.644 187.503 224.758C188.369 214.872 182.511 206.291 174.413 205.581C170.869 205.269 167.484 206.517 164.725 208.849ZM121.05 265.756C113.325 272.283 108.012 281.151 106.553 292.584C101.897 329.079 104.805 373.22 135.101 421.839C170.489 478.629 224.197 416.29 194.986 394.89C157.671 367.553 165.059 336.944 195.125 320.968C208.491 313.867 216.272 299.729 212.425 281.94C207.798 260.549 178.478 247.863 150.003 253.037C138.904 255.052 128.774 259.229 121.05 265.756ZM203.656 212.059C200.091 215.162 197.135 219.387 195.299 224.429C190.403 237.873 195.351 252.03 206.364 256.041C217.378 260.051 230.276 252.397 235.172 238.953C240.068 225.508 235.109 211.361 224.096 207.35C217.212 204.843 209.598 206.889 203.656 212.059Z" fill="#FFFAFA"/>
</svg>
